<svg id="Layer_1" data-name="Layer 1" xmlns="http://www.w3.org/2000/svg" width="390" height="383" viewBox="0 0 390 383">
  <defs>
    <style>
      .cls-1, .cls-3 {
        fill: #fff;
      }

      .cls-1 {
        stroke: #000;
        stroke-miterlimit: 10;
        stroke-width: 2px;
      }

      .cls-2 {
        fill: #202020;
      }
    </style>
  </defs>
  <g>
    <polyline class="cls-1" points="380.86 380 383.12 345.77 385.37 326.64 385.37 288.38 383.12 254.15 386.5 207.83 383.12 167.56 383.12 128.29 386.5 94.06 381.99 59.83 384.81 12"/>
    <path class="cls-1" d="M9.5,4.5v18c-.36,11-.81,27.62-1,48-.17,18.46,0,29.45,0,43,0,14.5-.08,26.61-1,75-.83,43.34-1.5,73.56-2,97L5,337v40"/>
    <g>
      <path class="cls-2" d="M385,13c.09-.22-.14-.26-.52.21l-.05.54Z"/>
      <path class="cls-2" d="M381.79,15.53c-.36.63-.71,1.43-.17,1.3.24-.74.45-.77.69-1.59.38-.47.79-.7.81-.55.08-.21.69-.64.75-1a5.63,5.63,0,0,0-1.94,2C381.72,15.83,381.8,15.61,381.79,15.53Z"/>
      <path class="cls-2" d="M328.45,15l.33.2A2.84,2.84,0,0,0,328.45,15Z"/>
      <path class="cls-2" d="M293.73,18c.25.13.25.09.29.08S293.69,17.94,293.73,18Z"/>
      <path class="cls-2" d="M288.43,14.67l.31.19A1,1,0,0,0,288.43,14.67Z"/>
      <path class="cls-2" d="M328.45,15l-.83-.52C327.51,14.56,328,14.78,328.45,15Z"/>
      <path class="cls-2" d="M375.26,19a3.15,3.15,0,0,0,.51.15l-.46-.19Z"/>
      <path class="cls-2" d="M342.71,21.74l.29.05.27-.1Z"/>
      <path class="cls-2" d="M354.37,19.79c-.28.07-.29.36-.36.51a1.22,1.22,0,0,1,.53-.36C354.53,19.89,354.48,19.84,354.37,19.79Z"/>
      <path class="cls-2" d="M373.24,16.8l.33.12Z"/>
      <path class="cls-2" d="M335.08,18.15a.21.21,0,0,0,0-.15S335,18.08,335.08,18.15Z"/>
      <path class="cls-2" d="M21.33,11.77s0,0,0,0S21.24,11.77,21.33,11.77Z"/>
      <path class="cls-2" d="M9.55,4.45l.15.13a.32.32,0,0,0,.14-.08Z"/>
      <path class="cls-2" d="M276.58,15.65h.05C276.92,15.55,276.75,15.59,276.58,15.65Z"/>
      <path class="cls-2" d="M182.27,20.05c1.2-.16-1.72.95.06.62C182.13,20.62,183.72,19.71,182.27,20.05Z"/>
      <path class="cls-2" d="M375,18.86l-.46-.22Z"/>
      <path class="cls-2" d="M182.33,20.67h0l.18,0Z"/>
      <path class="cls-2" d="M252.57,16.37a.31.31,0,0,0,.09.12A.36.36,0,0,0,252.57,16.37Z"/>
      <path class="cls-2" d="M270.94,14.13l-.43-.22A3.54,3.54,0,0,0,270.94,14.13Z"/>
      <path class="cls-2" d="M242.4,16.93c-.21,0-.27,0-.55,0l-.23,0,.11,0,.12,0A2,2,0,0,1,242.4,16.93Z"/>
      <path class="cls-2" d="M231.77,17.83l.2,0,.33,0Z"/>
      <path class="cls-2" d="M47.79,14.76a1.43,1.43,0,0,1-.54-.09C47.46,14.81,46,15.34,47.79,14.76Z"/>
      <path class="cls-2" d="M375.32,18.88a.46.46,0,0,1-.34,0l.33.13S375.38,18.94,375.32,18.88Z"/>
      <path class="cls-2" d="M242,19.16h0l-1.55.09c.43,0,1.07-.05,1.55-.09Z"/>
      <path class="cls-2" d="M118.09,15l-.39,0A1.46,1.46,0,0,0,118.09,15Z"/>
      <path class="cls-2" d="M235.44,19.73a5,5,0,0,0-1-.11,1.14,1.14,0,0,0-.19.09Z"/>
      <path class="cls-2" d="M47.24,14.67h0Z"/>
      <path class="cls-2" d="M36.84,18.61c1.54-.47.62-.57.88-.87,1.8-.67.93,0,1.61,0,1.11-.45,1.88-1,2.74-1.3.08,0,.25,0,.08.14,1.12-.66,3.58-1.13,4.88-1.92a.33.33,0,0,1,.21,0c-.28-.11-.37-.28-.36-.42.68-.22,1.2-.62,1.53-.47a1.16,1.16,0,0,0-.6.36l.69-.32c.75.12-1,.42-.87.66.64-.26,1.52-.64,1.82-.8a7.32,7.32,0,0,1,1.53.85c0,.2-.56-.11-1-.36-.26-.14-.33-.17-.36-.16s0,0,0,.07,0,.07.18.21a1.33,1.33,0,0,1-.23-.18L49.41,14A4,4,0,0,0,49,14c.29.05.24.13.26.16s0,0-.08.05-.26.08-.27.12.13.07.35.15h.09l.07,0h0l.11.06.21.12.79.41a18.39,18.39,0,0,1,1.89,1.14c.54.11,0-.33.54-.22,2.95,1.41,1.74,2.06,4,2.93a3.43,3.43,0,0,1,2.41,1l-.69,0a6.47,6.47,0,0,0,.9.5l.39.17.36.15a5.2,5.2,0,0,1,2.28,0c-.43.13-1.76,0-1.42.08,1.48.4,1.08-.14,2.23-.07l.22.36c2.36.1,5,0,7.6.14-.15.09-.61.17,0,.31l1.16,0,.18.08.38.17.76.37,1.51.75,3.54,1.86.88-.43.43-.2.25-.11,1-.43,1-.82c.25-.13.52-.13.28.06,1.15-.47,0-.19.44-.57.62-.34.91-.28.55,0A43.23,43.23,0,0,1,91,18.28l-.36.28c1.66-.7,1.52-1.52,3.15-1.95l-.26.18c1.08-.45,2.17-.94,3.26-1.42l2.92-1.31.79.21,1,.29c.66.19,1.28.4,1.85.62a5.46,5.46,0,0,1,2.15.36c.44.11.88.22,1.24.27s.79.08.86-.06h0l.54-.06.33,0,.53,0,.79,0a24.78,24.78,0,0,0,2.7-.31l.2-.05c.06,0,0,0,.05,0s.17-.06.3-.1l.42-.13a4.33,4.33,0,0,1,1-.21l0,.31,1.4-.35.75.36,1-.1c-.38,0-.82-.12-.77-.21a11.41,11.41,0,0,1,2.41,0l.52.06.22,0,.06,0a.14.14,0,0,1,.06.14h0s0,0,.37.21l.74.51,1.48,1c-.14,0-.64-.3-1.06-.54,1.7,1,.07.48,1.62,1.35-.14-.2.22-.06.29-.09a8.63,8.63,0,0,0,1,.95l.67.57,1.25,1,1-.43.5-.21.27-.12-.18.3c1.1-.41,2.25-.88,3.42-1.37l1.78-.75.91-.37.13-.06,0,0,.08,0,.25.17c-.13-.11-.12-.12-.12-.14s0-.06,0-.1a.52.52,0,0,1,0-.18.13.13,0,0,1,.13-.09c.07,0,.1,0,.32.13l.1.47c.58.16-.68-.63.42-.16.89.67.4.73-.19.45l1.18.69c0,.12-.28,0-.42,0,.57.15,1.73,1.61,2.59,1.78v.13c1.22.86,2.13,1.46,3,2l1.27.83,1.78,1.22c.09-.14.58.15,1.16.49a12.92,12.92,0,0,0,1-1.28l.59-.56.41-.37.87-.78.89-.81.44-.41.13-.1H151c1.51-.16.44-.24,1.11-.42.12.25,2.27.19,1.16.4,2.59-.09,3.3-.11,6.57-.37-.35-.1-.75-.14-.55-.23.59-.05,1.35.08,1.27.21l-.15,0a16.44,16.44,0,0,1,2.14-.12l1.12,0,.57,0h.48l1.78.45,1.81.43a14.52,14.52,0,0,0,3.19.41h-.16l3,.22c1.36.27-.86.05.13.38a18.86,18.86,0,0,1,3.33.4l1.42.29.69.15,1,.18.63-.23.4-.16c.25-.1.5-.22.76-.34,2.22,0,7-2.51,9.79-3l-.21-.12a1.92,1.92,0,0,1,.52-.24c.23-.06.47-.1.71-.14a6.46,6.46,0,0,0,.6-.49c-.06-.06-.55.39-.64.42s-.1,0,0,0,0-.06.1-.17l1.31-1.42,1.2-1.25c.4-.42.81-.83,1.23-1.25l.54-.54.18-.15.27.12,1,.39,2,.79,2,.8c.74.3,1,.43,2.61,1l3.75-1.83a3.29,3.29,0,0,0,1.38-1.06l.18-.23c.07-.08,0-.1.07-.15a.56.56,0,0,1,.28-.23,1.41,1.41,0,0,1,.21.35.36.36,0,0,0-.27.2h.11l.19.16.91.8c.6.54,1.19,1.1,1.78,1.66l4.2,4.07,1.69-1.06,1-.67c.62-.4,1.22-.82,1.8-1.25-.19.21-.14.3-.52.54a4.94,4.94,0,0,0,.87-.43l.11-.07,0,0a.19.19,0,0,0,.07-.08,1.07,1.07,0,0,0,.18,0s0,0,.11,0l.13.05c.08,0,.12,0,.14,0,.56.44,0,.24.33.58a6.66,6.66,0,0,0,1.37.91c.25.14.45.25.67.4a4.08,4.08,0,0,1,.76.64c.12.13-.43-.22-.71-.4.18.11.44.27.74.49l1.95-.21c.41-.05.65-.12.4-.21,1.72,0,3.25-.41,4.63-.37.86-.38,2.93-.11,3.18-.57-.08.47,3,.1,4.08-.2-.18.08.09.09.22.12s.47.08.23.18c1.24,0,2.37-.13,2.15-.35,2.29.5,4.57-.52,5.87.15l1.41-.11.67-.05.34,0,.53,0,3.75-1.85,3.35-1.61c.07.46-3.33,1.5-3,1.88a74.68,74.68,0,0,1,7.19-3.65.43.43,0,0,1,.16,0l0,0s0,0-.1.13-.54.34-.65.43l.7-.34.26-.14.14,0,.3.12.87.37,1.69.74c1.11.48,2.21.93,3.31,1.3a1.6,1.6,0,0,1-.59-.12c.51.2,1.14.57,1.17.35l-.51-.16c-.69-.62,2.24.3,2.4.19-1.09.17,2.46,1.24.81,1.33a3.64,3.64,0,0,0,.53.12c.13,0,.33,0,.29-.07a3.17,3.17,0,0,1,.59.34c.12,0,.12,0,0,.11a2.49,2.49,0,0,1-.42-.08l.41.16.84-.21L277,18l.46-.19a5.44,5.44,0,0,1,1.36-.38c0,.1-.33.21-.49.36a11.19,11.19,0,0,1,3.19-1c-.07.08.11.12-.33.21,1.07-.23,2-.51,2.91-.78l1.4-.4c.48-.13,1-.26,1.33-.32l.37.21.54.33c-.94,0,.78.59.73,1l1.39.64-.45-.46c1.17.65,2.34,1,3.29,1.64l-.95-.34,2.1,1.08.54-.07-.53,0-.62-.4-.43-.29c.52.19.66.16.71.1s.05-.13.44.08l.64-.05a19.65,19.65,0,0,1,2,0h0a7.49,7.49,0,0,1,2.29-.42c.27.08-.15.43,0,.49.61-.39,3.1-.45,3.88-.88-.26.11-.25.31-.16.34l.52-.32c.62,0,.72,0,.63.21l.32,0,.29-.12.13-.07c.07,0,.1-.07.1-.09s-.06-.08-.12-.1-.13-.12.88-.41c-.16.08-.07.09-.39.25,2.11-.71,3.93-1.72,5.88-2.35.7.13-1.63.74-.87.78l1.09-.47c.34-.16.8-.36.91-.43h.23l.41,0,.84,0,1.66.09c1.1.06,2.18.14,3.22.29l-.53-.1c.15-.16.43-.16.78-.1s.73.2,1.4.33a5.8,5.8,0,0,0,1.48-.75c-.29.2-.27.47-.22.38.47-.22.94-.46,1.42-.73l.74-.42.48-.3.45.17.81.32,1.79.72-.39,0c1,.6,2.7,1.37,3.8,2,.39,0,1,.36.72,0l.63.45a23.55,23.55,0,0,0,4.13,2.5c.7.36,1.38.71,2.05,1.09.33.19.65.39,1,.6s.55.4,1,.73l.54.16-.58-.05c-.3-.14-.52-.21-.27-.06l.24.13,2.84.31c-.19-.26-.36-.2-.93-.46a6.23,6.23,0,0,1,1.91,0c-1.31,0,0,.36.5.58-.09-.09.12-.14.08-.22,1.31.58.48-.25,1.88.05a4.16,4.16,0,0,1,.48-.09l-.07.14a19.14,19.14,0,0,1,2.17-.82c.41.16-.75.35-.74.57,1.12-.34,2.07-1.13,3.17-1.17-.46.21-1.15.41-1.6.62a7.05,7.05,0,0,0,2.14-.32h-.09l1.95-.41-.51.06c1.2-1.09,2.83-.94,4.58-2-1.7,1-.23.34-.28.67.51-.07,1.26-.22,1.08-.07.81-.52,1.54-.3,2.68-1.05.09.08.95-.3.83,0,1.13-.45-.33-.07-.27-.22,1.68-.9,4.3-1,6.72-2.24l1-.46.33-.18L370,16l.5.1.64.18c.44.13.92.28,1.55.53.59.45-.69.06-.69.06a13.07,13.07,0,0,0,2.85,1.37c-.24,0-.07.14.19.39.81.36.69-.07,1.68.57a3.67,3.67,0,0,1-1,0c.82.29,1.64.58,2.47.89.25-.32.5-.63.75-1,.33-.13-.3.68-.69,1.26l-.16-.05.17.07.94-1.12.39-.47.31-.41a4.13,4.13,0,0,0,.73-1.2l-.6.51c.29-.34.32,0,.14.26a2.47,2.47,0,0,1-.76.86c-.2.13-.43.23-.47.2l.51-.65c-.42.09-.85.54-1.36,1.18L376.69,19a10.52,10.52,0,0,1-1.33-.53l.76-.1L374.54,18c-.26-.25-.37-.56.35-.28-.91-.67-.95-.29-1.71-.91-.08-.08,0-.08.06-.05l-1-.35c.23,0,0-.35.54,0a13.05,13.05,0,0,0-2.68-1.2,2.66,2.66,0,0,1-1.16.3l.15-.07c-2.52,1-.15.37-2,1.33l-1.53-.29-.16.37c-.26.08-.79.23-.73.08-.93.52.2.07-.31.45-1.36.15-3.47,1.26-3.91.89-.38.37,1.28-.22,0,.38-.54-.38-1.54.59-2.78.74.28-.37,1.42-.59.19-.44-.56.68-2.31.59-3.28,1,.06.37-2.11.78-3.74,1.38a7.32,7.32,0,0,0-1.76.34l-1.58.38-.76.17-.35.08-.21,0,0-.07a.28.28,0,0,1-.07.11c-.08.12-.61.09-1.18,0l-1.75-.19c.08-.21.31-.27,1-.27L343,21.79a4.18,4.18,0,0,1-1.38,0l.33-.22-.86-.1c-.28,0-.62-.05-.74,0l-.22-.1-.34-.17-.7-.38a15.13,15.13,0,0,1-1.44-.93c-.23.16,1,1.41-.9.5,0-.16.07-.41.56-.18a3.41,3.41,0,0,1-.88-.46l.83.23c-.71-.55-.5-.07-1.1-.46.12-.16-.37-.39-.21-.47a4.12,4.12,0,0,0,.77.46,8.09,8.09,0,0,1-1.64-1.33c0,.13-.14.22-.65-.06-1.31-.76-.32-.47-1-1-.28-.06-.69-.35-1-.48s-.27,0-.33,0a1.15,1.15,0,0,1-.53-.5c-.77-.22-3.32-1.55-2.66-.88l.17.1-.12,0h0a19,19,0,0,1-2.41-1.06l-2.54-1.34c-1.08.52-1.73.83-2.49,1.28l0-.09-.81.47-.71.41-1.29-.07a9.09,9.09,0,0,0-1.17,0c-.45-.05-1-.29-.84-.39a12.12,12.12,0,0,1-3-.29c1.18-.05-.38-.2,1.21,0L313.38,14l-.62-.08-.35,0-.56,0a7.19,7.19,0,0,0-.73.39c.42-.44-1.17.12-1.81.45l1.05-.22c-.74.33-1.41.57-2.08.81l.24-.45a13.5,13.5,0,0,0-2.6,1l-2.13,1.1a4.47,4.47,0,0,1-.57.1c-.23,0-.45.06-.67.07a6.56,6.56,0,0,1-1.33-.06c-.78.32,1.69,0,1,.32-1.41.12-2.94-.18-3.39-.13-1.95,0-1.75.69-3.79.81.3.08.51.37-.9.65H294a2.08,2.08,0,0,1-.85-.79c-.05-.18.14-.22.54-.05l.2.11a.15.15,0,0,1,.06,0s0,.06,0,.08l.12,0c.23-.07.35-.14.15-.22a1.13,1.13,0,0,1-.1.13h0l-.13-.11-.07-.06-.16-.11-.68-.43c-.42-.27-.7-.48-.46-.45-1-.42-.5-.05.17.39-1.52-1-2.5-1.38-4.09-2.39.23.2.4.46.14.31-.55-.34-.85-.51-1.17-.67a3.17,3.17,0,0,0-.67-.29c-.19.08-.28.15-.49.24a6.91,6.91,0,0,1-1,.29c-1.08,0,.29-.5-1.53,0-1.15.1-.3-.26.13-.45a18.85,18.85,0,0,1-4.14.63l.87-.27a11.44,11.44,0,0,1-1.39.33l.55.14c-.53.06-1,.14-1,0-.5.26.49.3-.53.72-.7,0-2.14.56-2.34.28,2.1-.31-.33-.26,1.48-.67a7.11,7.11,0,0,1-1.31.25c-.09,0,.06-.08.2-.12l-.3,0h-.18s-.05,0-.08.05a2.77,2.77,0,0,1-.33,0,3.49,3.49,0,0,1-1.41-.4c.32-.05-.34-.51-.68-.62.81.36.27.44-.53.24a11.57,11.57,0,0,0-2.13-.83l.75.4a6.37,6.37,0,0,1-1.9-.59c0-.16.86.26.56.07-1.12-.15-2.14-1.28-3.62-1.7-.6-.39.07-.33-.47-.65l-.29-.09-.41-.16c-.27-.1-.5-.2-.72-.3-.34.14-.63.24-.93.35l-.21.07-.13,0-.27.08a6.17,6.17,0,0,0-1.37.6c.57,0,.63-.08-.44.64l1.33-.67.66-.33.33-.17.55-.26c-.21.12-.51.28-.62.36l-.4.27-.8.54c.36-.16.74-.35,1.08-.53l.25-.14.34-.17.63-.29.27.12-.27-.06c-.9.54-.7.42-.22.41a4.3,4.3,0,0,0-.57.14,3.86,3.86,0,0,0-.45.17,8.21,8.21,0,0,0-.83.43,6.89,6.89,0,0,1-1.8.81l-.2-.55c-2,.6-3.33,1.78-5.92,2.74l.86-.26c-.25.37-1.55.71-2.33,1.16,0-.11-.13-.12-.3-.11l-.28,0-.12,0h0s0,.05-.11.06l-.72.05c-.54,0-1.12.1-1.24.3l-1.23-.24c-2.23-.07-2.53.61-4.67.58.64-.23-.33-.35,1.1-.53-.72,0-1.36,0-1.37.12-.41-.11-1.82.27-2.57.14h-.12a2.19,2.19,0,0,1-1.17.39c-.09,0,0-.1,0-.1s-1.24.24-.52.4c-2.25-.42-6.12.58-8.07.22l-3.9.48-.38-.26c.1,0,.09-.06.2.05a1.92,1.92,0,0,0-.19-.17l-.23-.17a2.22,2.22,0,0,0-.37-.22,2,2,0,0,0-.56-.18,3.35,3.35,0,0,1-1.57-.92c-.2-.25-.27-.37-.2-.36a1.85,1.85,0,0,1,.39.22c.3.19.62.43.37.17,0-.18-.08-.35-.32-.55a14.75,14.75,0,0,0-1.33-.94l-1.55,1a4.88,4.88,0,0,1-1.12.56l.29-.22a5.85,5.85,0,0,0-1.39.86l-.38.29a2,2,0,0,0-.3.25l-.44.38a4.1,4.1,0,0,1-.39-.35s.07,0,.06-.08l-.13,0a1.54,1.54,0,0,1-.22-.14l-.51-.36c-.35-.26-.73-.56-1.11-.87-.77-.63-1.56-1.32-2.24-1.91.58.2.68.47.62,0-.61-.53-.12.47-1.33-.6a9.2,9.2,0,0,1-1.09-1.8l1.25,1.19a2.46,2.46,0,0,0-.67-.86c-.45-.42-.93-.8-1.33-1.15a6,6,0,0,1-.69.37l.12-.24-1.06.59-.52.34c-.31.21-.55.39-.79.58a12.91,12.91,0,0,1-2.13,1.3h.28a2.21,2.21,0,0,1-.84.57c-.19.06-.32.05-.5.12a2.09,2.09,0,0,0-.6-.13l-.25-.51c-.88-.21-3.1-.69-4.64-1.16a35.72,35.72,0,0,1,3.94.74,18,18,0,0,0-3.36-1,4.24,4.24,0,0,1,1.12.32,12.19,12.19,0,0,1-1.87-.3c-.34-.09-.71-.18-1.08-.3s-.9-.29-1.37-.46l-.07.08c0-.29-.24-.19-.72.21l-.38.34-.31.28-.69.68A12.64,12.64,0,0,1,192.78,16c-.22.28-.52.61-.53.65l-.09,0-.17.07-.49.18-1,.35-2,.65c-1.39.42-2.84.86-4.36,1.42,1.42.13-1,.37-.59.87a5,5,0,0,1-1.19.41l-.86.17-.43.09h-.23l-.2-.09-.4-.14c-.29-.14-.08-.14.19-.12s.33,0,.35-.06l-.08,0-.25-.06-.34-.1a.7.7,0,0,1-.3-.16c-.1-.1-.12-.2-.71-.39.21.26-.7.19-1.73-.08l1.42.54c-2.62-.14-2.13-.92-4.78-1l.85-.05c-1.35-.11-4.92-.81-6.31-.54-.22-.11-.5-.33.09-.27-.57-.11-1.16-.2-1.77-.28l-2-.23-1.76.13-1.6.11a19.68,19.68,0,0,1-2.79,0l.25-.15a5.4,5.4,0,0,1-1.8.16c0-.07.24-.16,0-.16a10.38,10.38,0,0,1-2.39.21l.67-.17a18.39,18.39,0,0,0-3.06.1l-1.31.17-.65.1-1,.09-.79.95-.6.7c-.16-.15-.69.19-1.3.67l-.87.73-.16.06v-.08h0l-.12-.07-1-.62c-.67-.42-1.32-.81-2-1.19-1.29-.76-2.57-1.48-4-2.37A11.83,11.83,0,0,0,137.3,16c-.6-.48-1-.78-2.44-1.81l-3.63,1.39c-1,.38-2,.73-2.91,1,.51-.12.05.35-.49.61l-.35.12a2.25,2.25,0,0,0-.28.14l-.3.19c-.13-.07-.2-.16-.1-.31l.07.07c0-.14,0-.24,0-.31s0-.05-.09-.1l-.15-.16-.34-.31c-.49-.42-1.07-.86-1.56-1.26l-.5.28a10.58,10.58,0,0,0-1.27-1.35c-.24-.22-.5-.44-.76-.66l-1.12-.9-1.42,0-1,.05-1.89.1a8.56,8.56,0,0,1-2.79-.2,6.17,6.17,0,0,1-.64.09l-.34,0h-.17l-.28,0-.27.07-.15.05-.32.1-.58.2,0-.28-1.92.35-1.59.33-1.88-.4.6-.07c-1.51-.37-2.1.35-3.5,0l-.32-.51-1.35-.34-1.72-.46-1.62.67-1.25.53a18.5,18.5,0,0,0-2.37,1.26c0-.08,0-.22.43-.41-.59.25-1.75.69-2.68,1.12s-1.58.91-1.25,1.06c-.19-.32-2.5,1.27-3.73,2.09l.08-.35a9.24,9.24,0,0,1-2.42,1.88c-.38.15-.42,0,.1-.22-1.28.5-.83.72-2.36,1.35l.46-.44a4.43,4.43,0,0,0-1.7,1.21,8.16,8.16,0,0,1-1.51.75c-.63.26-.8.23-.87.12a.41.41,0,0,1-.06.11.53.53,0,0,1-.38,0,3.58,3.58,0,0,1-.85-.37c-.06-.14.24-.06.39,0-2-1.19-3.29-1.21-4.62-2.16,0-.1-.13-.21-.31-.33l2.26,1.1a6.5,6.5,0,0,1,.76.39c.11-.23-1.23-.92,0-.72l-1.33-.38-.76-.23-.39-.13-.25-.1L73,19.58H71.83A7.49,7.49,0,0,1,71,19.5a.59.59,0,0,1-.19-.11H71a3.66,3.66,0,0,0-.93,0,10.58,10.58,0,0,0-1.21-.16,8.39,8.39,0,0,0-2.46-.29c0,.28-.93.17,0,.47-.12,0,.14,0,.64,0h.32l0,0,1.86.1a4.41,4.41,0,0,1-2,0c-.4.16-.83.32-1.08.39-1-.46-3-.8-3.22-1.06h-1l-.51,0H61l-.11-.05-.28-.16L60,18.23c-.4-.22-.79-.43-1.17-.61a8.71,8.71,0,0,0-2-.78c-.59-.28-.56-.52-.72-.72a6.61,6.61,0,0,0,.94.44c-1.18-.57-3.32-2-3.78-1.82-1.31-1,1,.19-1-.93l.32.06c-.44-.35-.86-.66-1.29-.94l-.64-.4-1-.59c-1.26.44-1.69.65-2.37.94s-1.28.57-1.95.85a19.5,19.5,0,0,1-4.65,1.33c.34-.06.51-.09.59-.05-1.47.36-2.94.8-4.42,1.27s-3.18,1-3.94,1.31l-.57-1.36c-.24-.62-.47-1.23-.71-1.84s-.45-1.22-.65-1.84-.44-1.34-.65-2c-.14-.41-.27-.76-.37-1a10.18,10.18,0,0,0-1.55.14c-.33.07-.56.16-1,.24l-.35-.3L25.48,10c-2.32.29-4-.67-7-.14l.39.19c-1.05,0-3.41.18-3-.06a.81.81,0,0,1-.23.11.44.44,0,0,1-.24-.25l.09-.14-2-1.62c-1.33-1.51.67-.21-1.37-2.33-.81-.74-2.51-1.9-2.3-1.53s.72.87.63,1L9.7,4.58c-.46.2-1.34,0,.15,2l1.4,1,.23.55-1-1a3.52,3.52,0,0,0,1.41,1.29,1.41,1.41,0,0,0,.33.69l1.49.88c0,.27-.78-.28-.07.59.7.42-.23-.82.78,0,.33.49.46.77.63,1a2.08,2.08,0,0,0,.46,0l.36,0a2.22,2.22,0,0,0,.42-.06c.11.12.06.2-.69.26l1-.09.78-.05a3.7,3.7,0,0,0,1.2-.21c.85.24,2.88-.12,2.8.32a10.46,10.46,0,0,1,2.29-.4c-1.43.55,2.94,0,2.57.55a4.71,4.71,0,0,1,1.38-.29l.82-.05.28,0,.2.4c.17.37.34.72.52,1a1.16,1.16,0,0,1-.26-.41,15.11,15.11,0,0,1,.5,2c.41,0,1.1,1.49,1.65,2.22,0,.33,0,.48-.05.52A.65.65,0,0,1,31,17c-.22-.24-.48-.59-.57-.34.07,0,.17.06.29.23a5.44,5.44,0,0,1,.46.82c.39.8.71,1.43.67,1a7.11,7.11,0,0,1,.19.82,3.4,3.4,0,0,1,1.41-.12c.15-.3.54-.44,1-.58a2.92,2.92,0,0,0,1-.45c1.44-.2.49.33,1.95-.28C38.13,18,36.84,18.61,36.84,18.61Zm34.42,2.64h0l-.78,0ZM74,22l-1.23-.6c0-.13.1-.17.38,0C72.93,21.38,73.57,21.75,74,22Zm-6.08-2.95c.5,0,.66.05.73.12l-.87,0-.07,0A.53.53,0,0,1,67.88,19.07Z"/>
      <path class="cls-2" d="M67,19.37h-.21l.3.08.18-.07Z"/>
      <path class="cls-2" d="M328.84,15.25l-.06,0a.55.55,0,0,1,.11.1S328.86,15.27,328.84,15.25Z"/>
      <polygon class="cls-2" points="114.58 15.17 114.58 15.1 114.3 15.16 114.58 15.17"/>
      <path class="cls-2" d="M344.18,23.26a.81.81,0,0,0,.21.1A.66.66,0,0,0,344.18,23.26Z"/>
      <path class="cls-2" d="M351.69,22l1.05-.2C352.28,21.89,352,22,351.69,22Z"/>
      <path class="cls-2" d="M357.27,20.54a.27.27,0,0,0,.07-.15h0Z"/>
      <path class="cls-2" d="M270.56,16l-.21-.08C269.85,15.78,270.18,15.9,270.56,16Z"/>
      <path class="cls-2" d="M296.65,19c-.29.08-.56.16-.86.23C296.27,19.18,296.65,19.15,296.65,19Z"/>
      <path class="cls-2" d="M242.19,19.16h0Z"/>
      <path class="cls-2" d="M294.52,19.36a5.79,5.79,0,0,0,1.27-.14A9.48,9.48,0,0,0,294.52,19.36Z"/>
      <path class="cls-2" d="M380.37,18.3l.2-.19s0,0,0-.06Z"/>
      <path class="cls-2" d="M380.56,18.05l.18-.25C380.64,17.91,380.56,18,380.56,18.05Z"/>
      <path class="cls-2" d="M381.13,17.28l-.39.52A1.61,1.61,0,0,0,381.13,17.28Z"/>
      <path class="cls-2" d="M373.05,17.86l-.12.05A.13.13,0,0,0,373.05,17.86Z"/>
      <path class="cls-2" d="M371,16.88A14.79,14.79,0,0,0,372.83,18l.1,0C372.54,17.89,371.5,17,371,16.88Z"/>
      <path class="cls-2" d="M362,17.71l1.87-.53c-.36,0-.82,0,0-.3C361.45,17.33,364.43,17,362,17.71Z"/>
      <path class="cls-2" d="M356.22,19.4c1-.34-.06-.15,0-.22C355.59,19.46,355.44,19.53,356.22,19.4Z"/>
      <path class="cls-2" d="M316.17,14.38l.13-.25C315.49,14.08,316.28,14.23,316.17,14.38Z"/>
      <polygon class="cls-2" points="308.33 16.72 309.12 16.58 309.38 16.23 308.33 16.72"/>
      <path class="cls-2" d="M303.34,16.63l.31-.08-1.28.25Z"/>
      <path class="cls-2" d="M233.63,17.42l.27.29C234.43,17.61,234.52,17.25,233.63,17.42Z"/>
      <path class="cls-2" d="M207,13.91a2.42,2.42,0,0,0-.77.21l-.23.1-.09,0a.64.64,0,0,0-.17.16h0A8.34,8.34,0,0,0,207,13.91Z"/>
      <polygon class="cls-2" points="123.21 14.24 123.77 14.56 122.78 13.88 123.21 14.24"/>
    </g>
    <g>
      <path class="cls-3" d="M381.5,379.5l-31-4-20,1c0,2-25-4-25-4l-4,4-6-3-10,2-25-3-8,1-14-1-25,3-9,3-9-5-7-4-4,5-7-5-13,4-30,2-8-3-7-4-6,2-10,2-23-6-13,6-6-4-10,4-15-3-13,5-18,3"/>
      <g>
        <path class="cls-2" d="M5.39,376.84c-.19.12,0,.3.52.16l.34-.39Z"/>
        <path class="cls-2" d="M9.29,376.81c.64-.26,1.36-.67.88-.9-.6.42-.78.32-1.43.81-.56.13-1,.06-.93-.07-.19.11-.89.07-1.16.33a5.14,5.14,0,0,0,2.65-.39C9.52,376.63,9.33,376.75,9.29,376.81Z"/>
        <path class="cls-2" d="M62.61,369.8l-.28-.24A2.59,2.59,0,0,0,62.61,369.8Z"/>
        <path class="cls-2" d="M94.68,370.87c-.26-.06-.37-.06-.39,0C94.53,370.88,94.73,370.91,94.68,370.87Z"/>
        <path class="cls-2" d="M100.32,372.72l-.33-.11A.91.91,0,0,0,100.32,372.72Z"/>
        <path class="cls-2" d="M62.61,369.8l.71.6C63.43,370.34,63,370.07,62.61,369.8Z"/>
        <path class="cls-2" d="M16.78,374.76a2.08,2.08,0,0,0-.48.17l.46-.12Z"/>
        <path class="cls-2" d="M48.52,372.65l-.28,0-.25.08Z"/>
        <path class="cls-2" d="M37,370.4c.26.06.41-.2.53-.3a1.06,1.06,0,0,1-.6.08C36.9,370.23,36.92,370.3,37,370.4Z"/>
        <path class="cls-2" d="M19.57,375.45l-.32.09Z"/>
        <path class="cls-2" d="M56.91,371.19a.24.24,0,0,0,.14.05S57,371.19,56.91,371.19Z"/>
        <path class="cls-2" d="M368.17,376.45s0,0,0,.05S368.26,376.46,368.17,376.45Z"/>
        <path class="cls-2" d="M381.49,379.57h-.19a.47.47,0,0,0-.06.15Z"/>
        <path class="cls-2" d="M111.45,372.31h0C111.12,372.4,111.28,372.36,111.45,372.31Z"/>
        <path class="cls-2" d="M201.53,378.18c-.87-.77,1.76.61.41-.46C202,377.89,200.38,377.35,201.53,378.18Z"/>
        <path class="cls-2" d="M17.09,374.74l.47-.08A4.41,4.41,0,0,0,17.09,374.74Z"/>
        <path class="cls-2" d="M201.94,377.72h0l-.14-.11Z"/>
        <path class="cls-2" d="M133.82,376.53a2.39,2.39,0,0,0-.23-.22S133.61,376.38,133.82,376.53Z"/>
        <path class="cls-2" d="M117.55,370l.45-.11Z"/>
        <path class="cls-2" d="M143.89,375.68a2.67,2.67,0,0,0,.68,0l-.11,0A1.12,1.12,0,0,1,143.89,375.68Z"/>
        <path class="cls-2" d="M153.93,375l-.19,0-.31,0Z"/>
        <path class="cls-2" d="M337.52,375a1.65,1.65,0,0,1,.48.23C337.83,375,339.31,374.86,337.52,375Z"/>
        <path class="cls-2" d="M16.82,374.91c0-.08.12-.13.27-.17l-.33.07C16.74,374.86,16.74,374.9,16.82,374.91Z"/>
        <path class="cls-2" d="M144.15,373.44l1.6-.06C145.3,373.38,144.72,373.4,144.15,373.44Z"/>
        <path class="cls-2" d="M268.81,372.35h.37A.78.78,0,0,0,268.81,372.35Z"/>
        <path class="cls-2" d="M150.48,373a3.92,3.92,0,0,0,.91.13.61.61,0,0,0,.18-.08Z"/>
        <path class="cls-2" d="M338,375.19Z"/>
        <path class="cls-2" d="M348.48,374c-1.52.07-.69.4-1,.63-1.81.19-.86-.23-1.49-.39-1.12.15-2,.54-2.82.56-.07-.05-.24-.07-.05-.15-1.18.35-3.55.19-4.93.63a.41.41,0,0,1-.19-.09c.24.18.28.36.24.5-.68,0-1.25.3-1.52.07a1.08,1.08,0,0,0,.64-.2l-.71.14c-.66-.31,1-.17,1-.42a29.53,29.53,0,0,1-4.07.5c-.24-.33,2.49-.24,1-.47l1.66.05c-1.29-.47,1,0-.19-.53-2.18,0-2.42.3-4.59.31-.48.21.17.27-.31.48l-.7.09-.2.79s0,0-.1-.1a.76.76,0,0,1-.12-.2l-.09-.15h0l-.17,0a2.22,2.22,0,0,1-.45-.05,3.32,3.32,0,0,1-.7-.26,2.88,2.88,0,0,0-1.81-.27,2.91,2.91,0,0,1-2.43.09l.6-.3c-2.05-.36-1.27.37-3.38-.26.41-.08,1.64.16,1.33.06-1.34-.55-1,0-2.1-.16l-.16-.38c-2.2-.35-4.66-.61-7.1-1.07.16-.07.59-.09.05-.31-1.28-.21-2.61-.5-3.94-.83l-2-.53-1-.28-1.65-.45-1.1,1c-.21.2-.43.39-.64.57l-.61,1c-.19.19-.45.26-.28,0-.91.76.09.18-.23.66s-.75.5-.51.14l-.22.28c-.07.09,0,.08-.08.13a1.76,1.76,0,0,1-.14.27l-.26-.06-.19-.06-.4-.17c-.53-.23-1.07-.47-1.59-.72s-1-.5-1.49-.76l-.67-.38-.8-.48.64.22c-.27-.16-.62-.33-.87-.45A5.25,5.25,0,0,0,294,373a3.39,3.39,0,0,1-1.49.35l.29-.11c-1.25.2-2.53.46-3.79.72l-1.87.38-.91.17-.45.08-.3,0-1.43-.25c-.49-.1-1-.21-1.4-.33-.58.35-3.62-.63-3.92-.07a32.7,32.7,0,0,0-4.39-1.12c-.78-.13-1.22.22-2.2.16v-.3l-1.36.16-.66-.45-.93,0c.36.06.76.23.69.31a8.76,8.76,0,0,1-3.47-.8l-3.42-.14c.09-.12.66-.09,1.12-.12-1.84.1-.29-.36-2-.27.22.1-.14.17-.18.23a3.9,3.9,0,0,0-.56-.16l-.35-.07-.18,0-.35-.05-.83.08-.71.09c-.48.06-1,.14-1.4.22l.24-.24c-.86.08-1.75.2-2.66.33l-2.68.4-1.17-.06L250,372c1,.17.75.52-.09.5l-.3-.35c-.55.16.85.19-.26.35-1.06-.11-.69-.42-.07-.48l-1.3,0c-.07-.1.24-.13.33-.25-.54.17-2.2-.48-3-.19l-.07-.1c-2.83-.2-4.12-.18-6.42-.33,0,.07-.12.11-.33.14l-.74.21a4.6,4.6,0,0,0-.77.25c-1.69.12-3.59.12-5.62.39-1.41.31-.39.29-1,.53-.13-.24-2.16,0-1.13-.28-2.43.33-3.11.42-6.16,1,.34.06.73.06.54.17-.55.11-1.28.05-1.22-.08l.15-.05a25,25,0,0,1-4.63.48l-2.36.09-1.12.06-.54.05-.65.08-.54.19-.39.16c-.25.11-.48.22-.7.34l.14-.07L209.07,376c-1.27.38.7-.43-.28-.27a20.15,20.15,0,0,1-2.48,1l-1.11.35c-.46.14-.47.13-.58.16l-.15-.09-.48-.26c-.37-.19-.75-.37-1.17-.55-1.36-1.63-6.17-3.34-8.25-5.1l.05.24c-.69-.19-.68-.51-1.1-.79,0,.15.57.51.15.38-.76-.4-1.53-.82-2.29-1.25L188.21,368l-1.64,2-1,1.21-1.05,1.22a.92.92,0,0,1-.24.19l-.09-.1,0,0v0l-.07-.06-1.26-1c-.84-.65-1.69-1.29-2.52-1.94a3.28,3.28,0,0,0-1.25-.64c-.47-.2-.83-.28-1.31-.52a6.6,6.6,0,0,1-1.05.39,4.55,4.55,0,0,1-.56.14c-.18,0-.39.08-.62.11l.65-.54c-1.93.79-4,1.42-6,2l-3,.93-1.49.48-.73.26-.37.13-.18.06-.05,0h-.06l-.19,0-.39.05a1.87,1.87,0,0,0,.28-.13l.15-.05a1,1,0,0,1,.17,0l0,0h-.09l-.22,0h-.51a10.59,10.59,0,0,0-1.12.1,3,3,0,0,0-1.34.35c-.68,0-.17-.17-.59-.24-.93-.08-2.28.46-2.78.25-.09,0,.25-.09.42-.12-.59.15-2.79.15-2.2.39-1.63,0-3.09.33-4.4.25-.82.37-2.78,0-3,.49.08-.46-2.87-.17-3.88.11.33-.16-.9-.08-.51-.3-1.17.09-2.24.24-2,.46-2.2-.4-4.31.72-5.57.11l-1,.14-.48.07h-.14l-.06,0a6.17,6.17,0,0,1-.75-.21l-1-.3-1.9-.61L127.43,372c.27-.38,3.26,1.17,3.3.68-.75-.23-1.42-.41-2-.58l-1.76-.46-.3-.14-.38-.18-.78-.39c-.52-.28-1.07-.59-1.67-1s.48.05.74.11q-1.2-.6-2.31-1.23l-2.6-1.49-1.25.42-.77.28c-.51.19-1,.39-1.49.6,0,0,.25-.17.49-.29-.49.18-1.17.32-1,.49l.46-.21c.89,0-1.76,1.25-1.8,1.42.35-.43-.36-.23-.87-.12s-1.06.08-.44-.42c-.32.1-.73.28-.62.4-.51.06-.68,0-.21-.24a29.06,29.06,0,0,1-2.77.89c0-.1.31-.2.46-.35a10.25,10.25,0,0,1-3,.91c.08-.07-.1-.12.32-.2-.68.15-1.3.31-1.9.49l-.88.27-.44.13-.31.11-.23,0-.35-.07-.72-.16c-.5-.12-1-.26-1.57-.45.88-.21-.85-.36-.89-.76l-1.43-.26.52.32a33.63,33.63,0,0,1-3.41-.74l1,.09-2.32-.53,1.26.48c-1.29-.14,0,.49-1.59,0a15.38,15.38,0,0,1-1.81-.7h0a7.08,7.08,0,0,1-2.17-.41c-.21-.18.29-.35.16-.47-.68.15-2.9-.67-3.74-.54.27,0,.34-.2.26-.26l-.56.12c-.55-.23-.63-.29-.49-.42-1.7-.49.42.6-1.56-.12a2.27,2.27,0,0,1,.44,0c-.62-.2-1.24-.35-1.85-.5l-2-.45-1.16.56c-.34.16-.68.3-1,.43-.68-.1,1.49-.79.77-.8-2.51,1.23-5.06,2.83-7.55,3.88l.47-.17c-.11.64-1.93.6-3.07,1.4.29-.17.28-.45.22-.36-.31.13-.63.27-.94.42l-.34.16-.28.15-.51-.27-.92-.53L64,369.67l.37.08c-.32-.27-.73-.57-1.17-.88l-1.64-1.12-1.22.46c-.28.25-.91.48-.46.51a17.15,17.15,0,0,0-4.47,1.58c-.69.33-1.36.67-2,1-.34.16-.68.3-1,.43l-.52.19c-.16.06-.27.08-.4.12l-.75-.3a2.14,2.14,0,0,0,.52,0c.09,0,.11,0,0-.05l-2.64-.4c.16.27.32.21.85.5a6,6,0,0,1-1.81-.12c1.24.09.06-.36-.44-.6.08.09-.12.13-.09.21-1.32-.68-.32.41-2.19-.24l.13-.1a16.89,16.89,0,0,1-2.19-.25c-.27-.33.78,0,.88-.18-1.09-.2-2.25.07-3.18-.39.48,0,1.14.16,1.62.17a6.31,6.31,0,0,0-1.94-.67l.08,0-1.82-.51.46.18a3.53,3.53,0,0,1-1.2.1,9.26,9.26,0,0,1-1.29-.21c-.41.16-.76.29-1.1.45a6.82,6.82,0,0,0-1.07.6c1.54-1.06.19-.34.22-.67-.48.09-1.19.26-1,.11-.74.54-1.45.35-2.48,1.13-.09-.07-.89.33-.79,0-1,.48.32.06.27.21-1.53.95-4,1.12-6.24,2.46a8.4,8.4,0,0,0-.9.47A35.24,35.24,0,0,1,20,375.13c-.71,0,.5-.44.5-.44a11.46,11.46,0,0,0-3,.49c.2-.12,0-.16-.36-.21-.82.16-.5.44-1.61.48a3,3,0,0,1,.76-.52c-1,.25-1.89.59-2.89.84-.29-.12.57-.35.91-.52a12.68,12.68,0,0,0-3.23,1l.75,0c-.41.08-.25-.2,0-.3.94-.37,1.42-.14,1.49-.05l-.7.18c.83.44,2.87-.57,4.32-.78l-.53.51,1.43-.59c.33.06.58.25-.12.43,1.07,0,.89-.3,1.82-.22.11,0,.07.05,0,.08l1-.29c-.18.12.22.26-.41.3,1.7-.06,2.65-.66,3.44-.63l.24,0-.16.09c2.4-1.07.14-.38,1.82-1.41l1.47.24.13-.37c.25-.09.74-.25.7-.11.84-.54-.21-.06.26-.45,1.28-.2,3.22-1.38,3.66-1,.35-.38-1.2.27,0-.37.55.35,1.44-.64,2.61-.84-.24.38-1.32.65-.15.45a2.07,2.07,0,0,1,1.08-.59c.44-.12,1.08-.26,1.29-.31a2,2,0,0,0,.37.08c.11-.35,2.11.27,3.75.47-.13.1,3,.8,4.47,1.23l-.06.05c.36-.3,1.9.08,3,.23-.09.21-.31.25-.94.23l1.06.21a3.62,3.62,0,0,1,1.31,0l-.32.22c.35.06.69.11,1.05.15l.54.07.74.1.73-.33.58-.25a10.48,10.48,0,0,1,1.27-.45c0-.28-1.63-.12.13-1,.11.1.27.29-.18.53a3.48,3.48,0,0,1,.84-.4l-.64.51c.82-.22.34-.34,1-.57.07.19.52-.06.49.12a5.53,5.53,0,0,0-.79.31,7,7,0,0,1,1.95-.45c-.1-.08-.1-.25.41-.48,1.33-.55.55,0,1.36-.18.27-.25,1.18-.46,1.09-.75a1.08,1.08,0,0,1,.7,0,5.06,5.06,0,0,1,.53-.27l.42-.2c.32.17,1.22.72.86.25l-.15-.12.11.06h0a17.59,17.59,0,0,1,2.55,1.61L66,372l.64.47.79.56c.55-.25,1.15-.53,1.51-.72l0,.09c1.26-.71,2.89-1.41,3.73-2,.39-.18,1-.26.88-.08a10.74,10.74,0,0,1,2.55-1.2c-.93.62.41,0-1,.59a10.26,10.26,0,0,0,3-1.4c-.37.45,1.11-.17,1.7-.52l-1,.25c.33-.17.65-.32,1-.46l.44-.19.26-.11h0v0a1.42,1.42,0,0,0-.09.37h.12l.16.09.45.13c.32.08.63.15,1,.21.62.12,1.23.2,1.82.29a8.33,8.33,0,0,1,3.22,1c.81,0-1.5-.56-.76-.65,1.3.39,2.54,1.21,3,1.31,1.74.65,1.79,0,3.63.58-.21-.18-.36-.54,1.07-.29s1.48.9.63.78c-.31-.07-.46-.15-.43-.18-.43-.07-1-.17-.52.09l.2-.07c.62.29,2.42.75,2,.82,1,.15.47-.07-.24-.32,1.63.6,2.62.68,4.31,1.25-.26-.14-.47-.34-.2-.27,2.49.8,1.17.08,2.9.47.35.17.41.27.4.33s-.06.1.39.22c.17,0,.59-.14.88-.23,1.09-.09.29.26-.12.44a17.78,17.78,0,0,1,3.93-.59l-.82.27a10,10,0,0,1,1.32-.32l-.53-.14c.5-.06.92-.14.93,0,.48-.26-.46-.31.5-.72.68,0,2-.53,2.27-.27-2.09.31.29.27-1.45.67a5.8,5.8,0,0,1,1.24-.24c.08,0,0,.07-.18.12a2.4,2.4,0,0,0,1.35-.3c.1-.07.18-.15.31-.23l.23-.12.17-.07.26-.08.33-.13.34-.12c-.2.26.57.17.88,0-.8.26-.48-.16.21-.53a9.49,9.49,0,0,0,2-.77l-.78.2a5.62,5.62,0,0,1,1.72-.8c.11.11-.78.36-.44.31a2.63,2.63,0,0,1,.76-.34l.21-.05.14,0a1.18,1.18,0,0,1,.26,0l.22.2.1.09.21.14a4.51,4.51,0,0,0,.92.5c.52.44-.11.32.36.68,1.52.61,1.41,1.09,3,1.77-.31-.45-.41-.45.75,0l-2.52-1.25,1.73.59c-.73-.42-1.62-.75-2-1,.84.26.73.27.48-.11.83.89,2.1,1,3.14,1.83l-.33.5.26.19.34.22.38.15.3.11.6.2,1.23.35a18.88,18.88,0,0,1,2.85,1l-.75-.39c.41-.1,1.52.53,2.34.74-.14.16.33.41.62.65,0,0,.07,0,.16,0l.6.2.69-.07.47-.07c.31-.06.55-.15.62-.28l1.18.18c2.11,0,2.36-.72,4.39-.79-.59.26.33.34-1,.58.67,0,1.28-.05,1.29-.19.4.1,1.85-.39,2.48-.24a2,2,0,0,1,1.12-.35c.09,0,0,.1,0,.1s1.17-.22.5-.39c2.12.48,5.81-.43,7.65,0,1.47-.17,3.24-.35,4.58-.45-.08.06,0,.09-.25.09,1.86.06,1.1-.64,3.21-.58,1.09.25-1.1.25-.43.33.16.29.73.25,1.44.16.35,0,.74-.11,1.13-.15.2,0,.39,0,.58,0s.34,0,.65,0a1.44,1.44,0,0,1,.36,0l-.34.13-.13,0h.13l.53-.12.44-.14c.3-.11.62-.25,1-.39a15.79,15.79,0,0,1,2.25-.86s-.06.08,0,.09a32,32,0,0,1,4.82-2c-.43.4-.7.36-.32.51.72-.26-.33-.33,1.1-.85.52,0,1.6-.22,1.82,0l-1.37.44a2.65,2.65,0,0,0,1.29-.25l.64-.27.21-.09.15,0,0,.18.16-.07,1.34.66a10.74,10.74,0,0,1,1.91,1.17l-.13-.24c1.28.44.76.81,2,1.33l.08.55.32.17.53.32,1.24.72,1-1.47c.26-.39.53-.77.76-1.12a5.91,5.91,0,0,1-.55,1.11c-.33.54-.75,1.16-1.18,1.79l-1.43-.83,1.46,1c.43-.56.88-1.15,1.23-1.64a4.76,4.76,0,0,0,.35-.54,1.24,1.24,0,0,0,.15-.32l-.29.48a3.83,3.83,0,0,1-.48.6l.29-.53.21-.42c.14-.27.31-.55.49-.84a20.39,20.39,0,0,1,1.33-1.84c.16.24.46,0,.73-.24.17.12.35.24.54.35l1,.6a5.84,5.84,0,0,1,1.54,1.22c2.73,1.25,5.09,3,8.16,4.67-.79-1.12.89.48,1-.16a4.53,4.53,0,0,1,1,.59l1,.75.49.38.76.53c.39.31.13.21-.25,0l-.58-.27c-.11,0-.17-.05-.18,0l.71.41.5.33a1.54,1.54,0,0,1,.69-.06,1.28,1.28,0,0,0,.37,0l.58-.09c-.3-.13.48-.49,1.47-.73l-1.44.18c2.24-1.09,2.19-.19,4.46-1.28l-.69.43c.41-.18,1.09-.42,1.84-.69l1.15-.42.57-.23.27-.11.12-.05,0,0s.19-.06.33-.1l.41-.11a4.09,4.09,0,0,0,.67-.26c.23,0,.55.17,0,.28,3.05-.29,6.7-1.33,9.1-1.31l-.21.17a4.92,4.92,0,0,1,1.68-.33c0,.07-.21.18.05.15a10,10,0,0,1,2.24-.44l-.63.24c3-.16,4.5-.95,7-1.35.05.44,2.4.3,3.57.23l0,.07.6-.07,1,.05,1.08,0c.7,0,1.37,0,2,0,1.34,0,2.66-.06,4.15,0a14.23,14.23,0,0,0,2.4.43l1.56.15,1.78.15,2.35-.25c.72-.07,1.43-.13,2.07-.16-.5,0,0-.35.6-.46.75,0,2-.56,2-.15l-.27,0a1.61,1.61,0,0,0,.6.14h.73l.24,0,.48.06.95.11.26-.5c3.05,1.14,8.26.71,9.89,1.6.78,0,1.72.07,2.48,0l-.07.28c2.09.32,3.13.48,5.73.73l-.55.13c1.46.2,1.95-.59,3.3-.44l.35.47.87.11,1.05.16.92-.15.74-.12,1.47-.24a19.2,19.2,0,0,0,2.89-.76c0,.07-.08.21-.49.31,1.18-.23,4.67-.65,4.08-1.12a.16.16,0,0,0,.18.13l.08.05.06,0,.18.09.87.35,1.73.63L298,376c.6.1.92.14,1.28.23a4.52,4.52,0,0,1,.61.19l.42.16.68.3c.47.28.43.47-.25.05a8.4,8.4,0,0,0,1,.5c.28-.31.43-.55.65-.83s.24-.29.42-.48a5.49,5.49,0,0,1,.53-.48l-.29.54a4,4,0,0,0,1.18-1.58,6.94,6.94,0,0,1,.9-.91,2.15,2.15,0,0,1,.42-.31.57.57,0,0,1,.26-.1.54.54,0,0,1,.17.18c0-.07.14-.14.34-.15a3.92,3.92,0,0,1,1.06.18c.08.12-.21.11-.35.11,2.12.69,3.3.42,4.73,1,0,.1.1.17.22.22-1.73-.39-3.12-.72-3-.71-.06.25,1.33.61.14.7a21.61,21.61,0,0,1,4.51.5.48.48,0,0,1,.16.12h-.15a3.57,3.57,0,0,0,.87.14,10,10,0,0,0,1.12.32c.12.24,1.58.44,2.28.59,0-.29.91-.06.1-.46.1,0-.14,0-.61-.07l-.3,0h.05l-1.74-.34a4.19,4.19,0,0,1,1.92.29c.4-.11.83-.21,1.07-.25.87.58,2.69,1.13,2.91,1.41,2.17.25,5.12.76,6.57.33a1.4,1.4,0,0,1,1,.29c-.38,0-.81,0-1,.06.39,0,.9,0,1.45,0a4.65,4.65,0,0,0,.87-.1,2.13,2.13,0,0,0,.54-.18,1,1,0,0,0,.36-.28.93.93,0,0,0,.24-.63l-.67.71a2.14,2.14,0,0,0,1.1-.32c1.56.09-.86.38,1.28.21l-.29.13c4.24.38,6.79-1.28,11.49-.76-.33,0-.49,0-.56-.1,2.27,0,4.68-.13,6.92-.29a78.67,78.67,0,0,1,9.09,1.33,6.19,6.19,0,0,0,2.58,0l.28.34,1.59-.15c2.22,0,3.69,1.23,6.53,1.1l-.33-.24c1,.16,3.17.28,3,.5a.92.92,0,0,1,.73,0v.16l2.48.05c1.88.36-.38.58,2.38,1,1,.07,3-.08,2.62-.23s-1.05-.24-1.06-.4l.95,0c.23-.44,1-.82-1.25-1.44l-1.65.08-.49-.29,1.36.16a3.13,3.13,0,0,0-1.81-.13,1.23,1.23,0,0,0-.65-.33l-1.63.23c-.17-.2.75-.26-.29-.5-.77.11.65.5-.59.47-.74-.31-.5-.45-1.42-.39-.11-.13.09-.18.45-.19a14.93,14.93,0,0,0-2.58,0c-.77-.36-2.72-.28-2.59-.71a9.43,9.43,0,0,1-2.2.08c1.42-.35-2.76-.39-2.33-.9-1.06.34-3.64-.26-5.44-.22a.87.87,0,0,1,.46,0,13.19,13.19,0,0,1-1.89-.52c-.18.37-1.74.26-2.6.39-1.18-.53.8-.36.46-.77,0,.32-2.16,0-1.78.36-.9-.36-.79-.22-1.23-.6a.37.37,0,0,1-.37.2l-.27,0-.43-.06-.26,0-.18,0a1.84,1.84,0,0,0-.36.11c-1.37-.17-.37-.44-1.86-.21C347.16,374.24,348.48,374,348.48,374Zm-34.92-.44h0l.72.14Zm-2.92-.64,1.26.29c.08.12,0,.19-.34.12C311.73,373.31,311.06,373.1,310.64,372.92Zm5.78,3.24c-.47-.06-.62-.15-.67-.22l.82.14.06,0A.46.46,0,0,1,316.42,376.16Z"/>
        <path class="cls-2" d="M317.33,376h.2l-.27-.11-.18.05Z"/>
        <path class="cls-2" d="M62.28,369.52l0,0-.09-.1S62.26,369.5,62.28,369.52Z"/>
        <polygon class="cls-2" points="272.14 372.6 272.13 372.68 272.4 372.64 272.14 372.6"/>
        <path class="cls-2" d="M47.21,371.08A.52.52,0,0,0,47,371,.62.62,0,0,0,47.21,371.08Z"/>
        <path class="cls-2" d="M40.25,369.63l-1-.3C39.7,369.47,40,369.56,40.25,369.63Z"/>
        <path class="cls-2" d="M34.58,369.44a.22.22,0,0,0,0,.15h0Z"/>
        <path class="cls-2" d="M116.6,368.33l.2-.08C117.25,368,116.94,368.17,116.6,368.33Z"/>
        <path class="cls-2" d="M91.94,369.05c.28,0,.56,0,.84.08C92.34,369,92,368.9,91.94,369.05Z"/>
        <path class="cls-2" d="M144,373.45Z"/>
        <path class="cls-2" d="M94,369.44a5.11,5.11,0,0,0-1.17-.31A9.15,9.15,0,0,0,94,369.44Z"/>
        <path class="cls-2" d="M12,375.53l-.26,0s0,0,0,.05Z"/>
        <path class="cls-2" d="M11.68,375.61l-.28.09C11.53,375.67,11.65,375.65,11.68,375.61Z"/>
        <path class="cls-2" d="M10.81,375.87l.59-.17A1.25,1.25,0,0,0,10.81,375.87Z"/>
        <path class="cls-2" d="M19.13,374.47l.07-.11A.12.12,0,0,0,19.13,374.47Z"/>
        <path class="cls-2" d="M21.3,374.08a12.58,12.58,0,0,0-2.05.19l-.05.09C19.51,374.15,20.83,374.33,21.3,374.08Z"/>
        <path class="cls-2" d="M30.28,372.41l-1.75.59c.34,0,.79,0,0,.29C30.83,372.76,28,373.24,30.28,372.41Z"/>
        <path class="cls-2" d="M35.67,370.5c-.9.41.07.15,0,.22C36.27,370.41,36.4,370.33,35.67,370.5Z"/>
        <path class="cls-2" d="M74,370.19v.27C74.73,370.11,74,370.37,74,370.19Z"/>
        <path class="cls-2" d="M81.1,366l-.67-.28-.37.11a4.3,4.3,0,0,0-.37.43l.75-.39Z"/>
        <polygon class="cls-2" points="85.19 368.9 84.86 368.86 86.12 369.09 85.19 368.9"/>
        <path class="cls-2" d="M152.16,375.38l-.25-.3C151.4,375.17,151.32,375.53,152.16,375.38Z"/>
        <path class="cls-2" d="M180.26,372.37a3,3,0,0,0,1.32,1.07C181,373,180.57,372.54,180.26,372.37Z"/>
        <polygon class="cls-2" points="263.95 374.17 263.34 374.2 264.47 374.25 263.95 374.17"/>
      </g>
    </g>
  </g>
</svg>
